<?xml version="1.0" encoding="UTF-8" standalone="no"?>
<!DOCTYPE svg PUBLIC "-//W3C//DTD SVG 1.1//EN" "http://www.w3.org/Graphics/SVG/1.1/DTD/svg11.dtd">
<svg xmlns="http://www.w3.org/2000/svg" version="1.1" viewBox="0.00 0.00 1912.00 769.00">
<path fill="#0069b1" d="
  M 470.48 113.80
  C 455.85 146.12 420.33 159.06 386.80 153.89
  C 355.48 149.05 331.76 126.57 327.15 94.82
  Q 323.26 68.10 332.86 45.91
  C 346.99 13.22 382.05 0.53 415.58 4.87
  Q 425.88 6.20 434.28 9.67
  C 466.05 22.79 479.95 52.41 477.39 85.99
  Q 476.24 101.07 470.48 113.80
  Z
  M 386.84 41.11
  C 373.48 51.28 371.45 73.85 373.37 89.27
  C 374.90 101.60 380.20 115.48 391.77 120.34
  Q 404.29 125.60 415.18 118.76
  C 423.54 113.52 428.22 102.63 429.84 92.93
  C 432.48 77.07 431.21 56.17 420.12 43.87
  C 411.50 34.29 396.72 33.60 386.84 41.11
  Z"
/>
<path fill="#0069b1" d="
  M 145.00 156.32
  Q 145.00 153.98 142.93 155.07
  L 24.54 217.70
  A 0.31 0.31 0.0 0 1 24.09 217.48
  L 0.29 96.82
  A 0.72 0.72 0.0 0 1 0.66 96.05
  L 164.74 11.22
  A 2.01 1.98 -58.2 0 1 165.65 11.00
  L 285.25 11.00
  A 0.75 0.75 0.0 0 1 286.00 11.75
  L 286.00 703.50
  A 0.50 0.50 0.0 0 1 285.50 704.00
  L 145.50 704.00
  Q 145.00 704.00 145.00 703.50
  L 145.00 156.32
  Z"
/>
<path fill="#00c2ff" d="
  M 604.04 225.50
  L 579.73 267.34
  A 0.33 0.33 0.0 0 1 579.44 267.50
  L 562.51 267.50
  A 0.33 0.33 0.0 0 1 562.21 267.06
  L 577.73 225.22
  A 0.33 0.33 0.0 0 1 578.04 225.00
  L 603.76 225.00
  A 0.33 0.33 0.0 0 1 604.04 225.50
  Z"
/>
<path fill="#00c2ff" d="
  M 360.78 251.31
  L 422.12 328.37
  A 0.54 0.54 0.0 0 1 422.11 329.05
  L 357.95 406.37
  A 0.54 0.54 0.0 0 0 358.37 407.25
  L 471.29 407.25
  A 0.54 0.54 0.0 0 1 471.83 407.79
  L 471.86 428.48
  A 0.54 0.54 0.0 0 1 471.32 429.02
  L 324.54 429.02
  A 0.54 0.54 0.0 0 1 324.00 428.48
  L 324.00 413.57
  A 0.54 0.54 0.0 0 1 324.12 413.23
  L 393.08 329.94
  A 0.54 0.54 0.0 0 0 393.09 329.26
  L 327.87 246.71
  A 0.54 0.54 0.0 0 1 327.75 246.37
  L 327.75 229.52
  A 0.54 0.54 0.0 0 1 328.29 228.98
  L 461.82 228.98
  A 0.54 0.54 0.0 0 1 462.36 229.52
  L 462.35 249.89
  A 0.54 0.54 0.0 0 1 461.81 250.43
  L 361.20 250.43
  A 0.54 0.54 0.0 0 0 360.78 251.31
  Z"
/>
<rect fill="#00c2ff" x="53.00" y="235.00" width="64.00" height="8.26" rx="0.32"/>
<path fill="#00c2ff" d="
  M 59.46 266.94
  Q 59.45 267.68 59.96 267.14
  Q 70.74 255.63 85.65 255.07
  C 103.46 254.39 118.30 266.62 117.98 285.14
  C 117.62 305.57 99.85 316.09 81.04 312.88
  Q 68.71 310.77 60.19 301.26
  Q 59.45 300.44 59.46 301.54
  L 59.47 314.50
  Q 59.47 314.73 59.25 314.73
  L 53.37 314.74
  Q 53.00 314.74 53.00 314.37
  L 53.00 291.64
  Q 53.00 291.02 53.62 291.01
  L 57.70 290.97
  Q 58.20 290.97 58.50 291.36
  C 67.10 302.82 82.60 307.96 96.35 303.36
  C 115.97 296.80 116.38 272.77 97.23 265.46
  C 83.62 260.27 66.62 265.68 58.39 277.53
  Q 58.06 278.00 57.49 278.00
  L 53.50 278.00
  Q 53.00 278.00 53.00 277.50
  L 53.00 254.25
  A 0.25 0.25 0.0 0 1 53.25 254.00
  L 59.24 254.01
  Q 59.47 254.01 59.47 254.24
  L 59.46 266.94
  Z"
/>
<path fill="#00c2ff" d="
  M 797.50 300.83
  Q 795.12 300.75 797.01 302.19
  C 822.61 321.79 827.87 354.26 819.12 383.78
  C 809.31 416.88 777.86 436.00 743.90 431.21
  C 702.62 425.39 682.70 389.63 685.83 350.33
  C 688.09 321.91 702.17 298.04 729.31 287.46
  Q 743.33 282.00 759.36 282.00
  Q 796.75 282.01 834.19 281.95
  Q 834.89 281.95 834.86 282.64
  L 834.00 301.55
  Q 833.98 302.08 833.45 302.06
  L 797.50 300.83
  Z
  M 741.46 303.98
  C 714.79 313.57 708.45 349.71 713.78 373.76
  C 717.34 389.84 727.20 405.46 743.54 410.64
  C 761.82 416.44 778.69 407.67 788.15 391.79
  C 796.58 377.65 798.96 359.46 796.12 343.40
  C 792.68 323.92 781.73 305.24 761.31 302.14
  Q 750.96 300.56 741.46 303.98
  Z"
/>
<path fill="#00c2ff" d="
  M 1052.25 308.01
  Q 1052.23 309.98 1053.22 308.28
  C 1073.72 273.27 1128.68 272.06 1145.45 311.31
  C 1149.65 321.15 1151.25 332.35 1151.25 343.00
  Q 1151.21 398.45 1151.30 451.44
  Q 1151.33 470.10 1153.91 487.49
  Q 1153.98 488.00 1153.47 488.00
  L 1130.22 488.00
  A 1.29 1.28 83.5 0 1 1128.97 487.00
  C 1125.34 470.96 1125.03 453.63 1125.03 437.38
  Q 1125.00 389.88 1124.96 343.18
  Q 1124.96 335.78 1122.64 327.51
  Q 1116.70 306.32 1096.45 303.97
  C 1077.35 301.75 1061.43 313.99 1056.24 332.05
  Q 1054.87 336.84 1054.93 348.31
  Q 1055.12 388.93 1054.96 428.50
  Q 1054.96 429.00 1054.47 429.00
  L 1029.29 429.00
  A 0.56 0.56 0.0 0 1 1028.73 428.44
  Q 1028.81 375.17 1028.71 320.25
  C 1028.69 308.73 1027.96 296.59 1024.74 285.34
  A 0.27 0.26 81.7 0 1 1024.99 285.00
  L 1047.53 285.00
  Q 1048.12 285.00 1048.37 285.54
  C 1051.36 291.95 1052.31 300.96 1052.25 308.01
  Z"
/>
<path fill="#00c2ff" d="
  M 1495.40 402.96
  Q 1495.18 400.55 1493.96 402.64
  C 1482.90 421.64 1464.61 433.07 1442.33 431.88
  C 1414.95 430.43 1396.29 410.87 1389.65 385.25
  Q 1385.42 368.94 1386.89 351.29
  C 1389.23 323.15 1404.69 295.00 1432.58 285.15
  Q 1443.94 281.14 1455.63 282.24
  Q 1482.91 284.80 1494.75 310.03
  Q 1494.99 310.55 1495.53 310.77
  A 0.50 0.50 0.0 0 0 1496.22 310.34
  Q 1496.91 297.17 1498.77 285.59
  Q 1498.86 285.00 1499.47 285.00
  L 1519.97 285.00
  Q 1520.51 285.00 1520.47 285.54
  Q 1516.74 338.67 1516.75 391.27
  Q 1516.75 396.63 1518.47 402.38
  Q 1521.24 411.64 1530.36 412.04
  Q 1531.00 412.06 1530.93 412.70
  L 1528.97 430.27
  A 0.93 0.92 86.9 0 1 1528.27 431.06
  Q 1524.30 432.04 1519.55 431.96
  C 1502.60 431.67 1496.74 417.47 1495.40 402.96
  Z
  M 1483.21 391.28
  C 1491.54 378.09 1492.54 364.16 1491.95 348.72
  C 1491.58 338.90 1488.92 329.49 1483.95 321.25
  C 1468.02 294.87 1436.05 297.18 1421.47 323.15
  C 1413.09 338.08 1411.11 357.87 1414.66 374.80
  C 1417.09 386.39 1422.95 398.39 1432.29 404.90
  C 1451.13 418.05 1471.79 409.38 1483.21 391.28
  Z"
/>
<path fill="#00c2ff" d="
  M 604.06 285.26
  A 0.19 0.19 0.0 0 1 604.23 285.00
  L 627.77 285.00
  Q 628.36 285.00 628.62 285.54
  Q 631.55 291.69 633.22 298.02
  Q 643.60 337.19 635.41 376.09
  C 629.71 403.13 614.18 426.24 585.40 431.02
  C 569.55 433.65 551.74 431.34 538.52 421.95
  C 523.59 411.35 517.06 393.66 517.05 375.64
  Q 517.03 349.60 516.91 321.02
  C 516.86 309.25 516.65 297.33 513.97 285.60
  Q 513.84 285.00 514.45 285.00
  L 538.21 285.00
  Q 538.81 285.00 539.08 285.53
  C 542.60 292.38 542.70 302.20 542.71 309.56
  Q 542.75 341.71 542.79 372.65
  C 542.82 394.37 556.79 413.06 580.37 409.89
  C 602.98 406.85 610.65 380.33 612.56 361.34
  Q 616.00 327.00 606.45 292.17
  Q 605.50 288.71 604.06 285.26
  Z"
/>
<path fill="#00c2ff" d="
  M 937.74 306.05
  Q 937.75 348.32 937.76 388.39
  C 937.76 394.66 939.03 402.72 943.64 407.32
  C 947.88 411.53 954.00 411.59 960.02 410.99
  Q 960.63 410.93 960.59 411.54
  L 959.50 428.82
  A 1.50 1.49 -5.4 0 1 958.38 430.17
  Q 943.60 433.97 931.59 429.80
  C 915.03 424.06 912.03 403.84 912.02 388.89
  Q 911.98 348.10 912.01 306.07
  Q 912.01 305.52 911.46 305.52
  C 896.47 305.37 882.28 305.11 867.74 307.79
  Q 867.12 307.91 866.98 307.29
  L 863.68 293.28
  Q 863.53 292.67 864.06 292.35
  C 873.77 286.43 887.48 285.08 899.60 285.05
  Q 942.62 284.95 985.07 285.02
  Q 985.61 285.02 985.53 285.55
  L 982.42 304.96
  Q 982.33 305.50 981.79 305.50
  L 938.29 305.50
  Q 937.74 305.50 937.74 306.05
  Z"
/>
<path fill="#00c2ff" d="
  M 1237.66 417.01
  A 0.16 0.16 0.0 0 0 1237.36 417.09
  Q 1236.90 443.42 1238.10 468.65
  Q 1238.52 477.28 1240.35 487.34
  Q 1240.47 488.00 1239.80 488.00
  L 1217.70 488.00
  Q 1217.00 488.00 1216.84 487.31
  Q 1215.16 480.03 1214.41 472.04
  Q 1213.12 458.09 1213.09 445.47
  Q 1212.91 369.18 1213.02 285.52
  Q 1213.03 285.00 1213.55 285.00
  L 1238.46 285.00
  Q 1238.77 285.00 1238.77 285.32
  Q 1238.69 332.06 1238.81 373.36
  Q 1238.84 381.50 1242.12 390.69
  Q 1247.91 406.89 1263.25 410.37
  C 1285.91 415.51 1307.96 396.82 1307.97 373.96
  Q 1308.00 328.42 1308.01 285.77
  A 0.77 0.76 -90.0 0 1 1308.77 285.00
  L 1333.20 285.00
  Q 1333.76 285.00 1333.76 285.56
  Q 1333.75 336.25 1333.74 389.67
  C 1333.74 399.14 1334.55 410.97 1346.68 411.68
  Q 1347.42 411.72 1347.34 412.46
  L 1345.40 430.78
  Q 1345.35 431.34 1344.81 431.51
  Q 1341.21 432.61 1336.58 432.57
  C 1321.00 432.44 1313.24 422.52 1311.08 407.93
  Q 1310.79 405.97 1309.80 407.69
  Q 1301.89 421.44 1288.01 427.85
  C 1271.68 435.39 1248.08 433.30 1237.66 417.01
  Z"
/>
<path fill="#00c2ff" d="
  M 72.76 333.99
  L 53.48 327.67
  A 0.35 0.35 0.0 0 1 53.24 327.34
  L 53.09 319.58
  A 0.35 0.35 0.0 0 1 53.55 319.24
  L 116.76 340.60
  A 0.35 0.35 0.0 0 1 117.00 340.93
  L 117.00 350.25
  A 0.35 0.35 0.0 0 1 116.76 350.58
  L 53.46 372.03
  A 0.35 0.35 0.0 0 1 53.00 371.70
  L 53.01 363.72
  A 0.35 0.35 0.0 0 1 53.25 363.39
  L 72.76 356.78
  A 0.35 0.35 0.0 0 0 73.00 356.45
  L 73.00 334.32
  A 0.35 0.35 0.0 0 0 72.76 333.99
  Z
  M 108.73 344.99
  Q 93.65 340.91 80.04 335.92
  Q 79.25 335.63 79.25 336.47
  L 79.25 354.45
  Q 79.25 355.09 79.86 354.87
  Q 94.22 349.66 108.74 345.64
  Q 109.91 345.31 108.73 344.99
  Z"
/>
<path fill="#00c2ff" d="
  M 106.09 389.28
  Q 99.96 389.77 92.45 389.87
  Q 72.23 390.13 53.21 389.96
  Q 53.00 389.96 53.00 389.74
  L 53.01 382.50
  Q 53.01 382.26 53.25 382.26
  L 116.51 382.26
  A 0.50 0.49 90.0 0 1 117.00 382.76
  L 117.00 390.48
  Q 117.00 391.16 116.42 391.52
  Q 98.63 402.65 81.44 413.30
  Q 73.36 418.31 64.85 422.10
  Q 62.93 422.96 65.02 422.82
  C 82.30 421.65 99.68 421.89 116.81 422.03
  Q 117.00 422.04 117.00 422.23
  L 116.99 429.50
  Q 116.99 429.74 116.75 429.74
  L 53.75 429.74
  Q 53.00 429.74 53.00 429.00
  L 53.00 422.21
  Q 53.00 421.53 53.58 421.16
  Q 72.31 409.51 91.25 398.03
  Q 98.37 393.72 106.26 389.94
  Q 107.93 389.14 106.09 389.28
  Z"
/>
<path fill="#00c2ff" d="
  M 106.07 451.29
  C 88.50 452.33 70.72 452.13 53.19 451.94
  Q 52.99 451.94 53.00 451.75
  L 53.01 444.50
  Q 53.02 444.26 53.25 444.26
  L 116.38 444.26
  Q 117.00 444.26 117.00 444.88
  L 117.00 452.47
  Q 117.00 453.17 116.41 453.54
  Q 99.97 463.79 82.63 474.58
  Q 73.37 480.34 64.70 484.20
  Q 63.08 484.92 64.84 484.79
  Q 73.32 484.14 82.80 484.06
  Q 99.37 483.93 116.76 484.02
  Q 117.00 484.02 117.00 484.26
  L 116.99 491.50
  Q 116.99 491.74 116.75 491.74
  L 53.75 491.74
  Q 53.00 491.74 53.00 491.00
  L 53.00 484.19
  Q 53.00 483.51 53.58 483.16
  Q 73.44 470.84 90.10 460.70
  Q 97.77 456.04 106.24 451.94
  Q 107.80 451.19 106.07 451.29
  Z"
/>
<path fill="#0069b1" d="
  M 1322.75 497.48
  L 1299.04 542.07
  A 0.33 0.33 0.0 0 1 1298.75 542.25
  L 1269.74 542.25
  A 0.33 0.33 0.0 0 1 1269.43 541.82
  L 1282.87 497.23
  A 0.33 0.33 0.0 0 1 1283.19 497.00
  L 1322.46 497.00
  A 0.33 0.33 0.0 0 1 1322.75 497.48
  Z"
/>
<path fill="#0069b1" d="
  M 381.00 543.37
  L 381.00 704.65
  A 0.35 0.35 0.0 0 1 380.65 705.00
  L 335.85 705.00
  A 0.35 0.35 0.0 0 1 335.50 704.65
  L 335.50 505.35
  A 0.35 0.35 0.0 0 1 335.85 505.00
  L 493.90 505.00
  A 0.35 0.35 0.0 0 1 494.25 505.35
  L 494.25 704.65
  A 0.35 0.35 0.0 0 1 493.90 705.00
  L 449.35 705.00
  A 0.35 0.35 0.0 0 1 449.00 704.65
  L 449.00 543.37
  A 0.35 0.35 0.0 0 0 448.65 543.02
  L 381.35 543.02
  A 0.35 0.35 0.0 0 0 381.00 543.37
  Z"
/>
<rect fill="#00c2ff" x="53.00" y="506.00" width="64.00" height="8.26" rx="0.27"/>
<path fill="#00c2ff" d="
  M 106.08 535.29
  C 88.47 536.36 70.73 536.09 53.20 535.96
  Q 53.00 535.95 53.00 535.75
  L 53.01 528.50
  Q 53.01 528.26 53.25 528.26
  L 116.50 528.26
  A 0.50 0.50 0.0 0 1 117.00 528.76
  L 117.00 536.55
  A 1.12 1.10 -16.7 0 1 116.49 537.48
  Q 99.30 548.25 81.55 559.22
  Q 72.91 564.56 64.62 568.24
  Q 63.20 568.87 64.76 568.80
  C 71.30 568.49 77.79 568.08 84.29 568.04
  Q 100.46 567.94 116.76 568.02
  Q 117.00 568.02 117.00 568.26
  L 116.99 575.50
  A 0.24 0.24 0.0 0 1 116.75 575.74
  L 53.75 575.74
  Q 53.00 575.74 53.00 575.00
  L 53.00 568.21
  Q 53.00 567.52 53.59 567.15
  Q 72.83 555.19 91.15 544.09
  Q 98.19 539.82 106.25 535.95
  Q 107.85 535.18 106.08 535.29
  Z"
/>
<path fill="#0069b1" d="
  M 577.31 694.14
  Q 576.91 721.51 577.81 748.99
  C 577.96 753.73 578.54 758.68 579.23 763.42
  Q 579.32 764.00 578.73 764.00
  L 535.74 764.00
  A 0.67 0.67 0.0 0 1 535.08 763.46
  Q 534.30 759.39 533.86 755.27
  Q 532.29 740.27 532.15 722.66
  Q 531.74 673.87 532.16 639.96
  Q 532.28 630.40 534.58 618.05
  C 536.99 605.15 542.43 592.08 551.09 582.52
  Q 566.06 566.00 585.13 560.41
  C 606.73 554.07 632.29 556.27 651.37 569.46
  C 665.64 579.33 675.13 594.78 678.63 611.73
  C 683.63 635.89 680.13 663.97 664.25 683.45
  Q 646.97 704.66 619.56 707.66
  C 604.67 709.30 588.16 705.63 577.86 693.94
  Q 577.32 693.33 577.31 694.14
  Z
  M 633.73 645.54
  C 636.58 631.37 635.24 611.24 623.86 600.54
  C 613.28 590.59 596.32 591.82 586.96 603.04
  C 576.24 615.90 576.89 634.43 577.37 650.15
  C 577.81 665.00 593.25 674.02 606.66 673.13
  C 622.00 672.11 630.89 659.63 633.73 645.54
  Z"
/>
<path fill="#0069b1" d="
  M 850.23 652.87
  C 840.61 695.92 797.46 714.34 756.94 705.97
  C 724.26 699.22 703.54 673.02 701.27 640.05
  C 698.69 602.76 716.97 569.58 754.58 560.00
  C 772.88 555.34 794.57 555.80 811.93 563.78
  C 846.92 579.86 858.33 616.62 850.23 652.87
  Z
  M 747.87 627.87
  C 746.90 646.10 752.00 672.87 774.15 675.37
  C 794.15 677.63 803.36 658.97 805.41 642.25
  C 807.77 623.12 803.23 588.78 777.26 589.06
  C 756.30 589.29 748.84 609.65 747.87 627.87
  Z"
/>
<path fill="#0069b1" d="
  M 1004.15 588.11
  Q 1003.90 588.76 1004.39 589.24
  C 1021.52 606.11 1026.00 629.00 1021.19 652.19
  Q 1013.70 688.25 981.03 702.01
  C 962.34 709.88 938.89 709.83 920.55 703.35
  C 886.40 691.28 871.29 660.10 874.41 625.20
  C 878.29 581.98 910.39 557.27 952.77 557.12
  Q 994.04 556.98 1037.58 557.09
  Q 1037.87 557.09 1037.85 557.37
  L 1035.81 589.25
  A 0.44 0.44 0.0 0 1 1035.36 589.66
  Q 1019.89 589.29 1004.98 587.60
  A 0.81 0.80 13.3 0 0 1004.15 588.11
  Z
  M 939.80 591.26
  C 918.06 600.57 918.08 638.15 924.60 655.78
  C 929.25 668.34 939.19 677.09 953.10 675.31
  C 971.39 672.97 977.53 651.73 978.36 636.45
  C 979.10 622.89 976.73 605.08 966.32 595.17
  C 959.17 588.37 948.64 587.48 939.80 591.26
  Z"
/>
<path fill="#0069b1" d="
  M 1355.52 661.78
  C 1342.00 699.07 1301.81 713.71 1265.19 706.01
  C 1238.57 700.41 1218.11 681.54 1211.65 654.90
  Q 1204.96 627.25 1214.90 601.20
  C 1228.33 566.04 1266.33 552.75 1301.35 558.29
  C 1331.34 563.03 1354.35 585.01 1359.35 615.34
  Q 1363.42 640.00 1355.52 661.78
  Z
  M 1255.86 627.96
  C 1255.09 642.74 1257.86 660.46 1269.43 670.07
  C 1277.32 676.61 1289.53 677.46 1298.10 671.85
  C 1316.67 659.69 1316.83 625.64 1309.65 607.53
  C 1305.37 596.74 1297.12 588.93 1285.19 589.07
  C 1264.27 589.31 1256.80 609.79 1255.86 627.96
  Z"
/>
<path fill="#0069b1" d="
  M 1106.26 620.07
  C 1121.76 601.34 1135.86 580.15 1149.46 560.43
  Q 1149.76 560.00 1150.27 560.00
  L 1200.46 560.00
  A 0.97 0.97 0.0 0 1 1201.19 561.62
  L 1144.29 625.81
  A 0.79 0.79 0.0 0 0 1144.63 627.08
  C 1154.37 630.31 1161.76 638.09 1167.63 646.37
  Q 1174.46 656.00 1180.18 665.80
  Q 1191.20 684.68 1202.88 704.70
  A 0.20 0.20 0.0 0 1 1202.71 705.00
  L 1151.54 705.00
  A 0.52 0.52 0.0 0 1 1151.09 704.74
  Q 1142.63 689.55 1134.29 674.88
  C 1129.59 666.62 1124.27 657.38 1117.28 650.79
  Q 1112.24 646.05 1105.86 645.92
  Q 1105.25 645.91 1105.25 646.51
  L 1105.25 704.50
  Q 1105.25 705.00 1104.75 705.00
  L 1060.74 705.00
  A 0.75 0.74 -90.0 0 1 1060.00 704.25
  Q 1060.03 652.41 1059.97 594.99
  Q 1059.97 586.33 1058.95 575.01
  Q 1058.23 567.08 1056.17 560.50
  Q 1056.01 560.00 1056.53 560.00
  L 1100.00 560.00
  Q 1100.58 560.00 1100.88 560.49
  C 1104.21 565.72 1105.04 574.85 1105.12 580.90
  Q 1105.37 599.27 1105.23 619.69
  Q 1105.21 621.33 1106.26 620.07
  Z"
/>
<path fill="#0069b1" d="
  M 1400.72 594.29
  Q 1388.01 593.92 1376.05 596.10
  Q 1375.39 596.22 1375.27 595.56
  L 1370.72 570.25
  A 0.91 0.89 66.6 0 1 1371.06 569.37
  Q 1376.53 565.19 1384.09 563.48
  Q 1399.32 560.03 1418.38 560.02
  Q 1481.63 560.01 1543.05 559.98
  Q 1543.68 559.98 1543.60 560.61
  L 1539.59 593.59
  Q 1539.52 594.19 1538.91 594.19
  L 1522.54 594.19
  A 0.56 0.55 -0.5 0 0 1521.98 594.75
  Q 1522.05 628.26 1521.98 660.56
  Q 1521.93 683.28 1525.07 704.40
  Q 1525.15 705.00 1524.55 705.00
  L 1482.55 705.00
  Q 1482.01 705.00 1481.75 704.53
  C 1479.44 700.41 1478.68 694.59 1478.18 689.48
  Q 1477.15 679.14 1477.10 670.33
  Q 1476.88 632.12 1477.04 594.84
  Q 1477.05 594.19 1476.40 594.19
  L 1445.69 594.19
  Q 1445.04 594.19 1445.02 594.85
  Q 1444.33 625.19 1439.90 656.64
  C 1437.59 673.05 1434.79 689.27 1429.20 704.39
  A 0.94 0.94 0.0 0 1 1428.32 705.00
  L 1386.22 705.00
  Q 1385.59 705.00 1385.76 704.39
  Q 1395.46 668.57 1399.54 627.00
  Q 1401.24 609.71 1401.28 594.87
  Q 1401.28 594.31 1400.72 594.29
  Z"
/>
<path fill="#0069b1" d="
  M 1656.29 685.36
  C 1654.29 688.39 1652.19 691.49 1649.67 694.09
  Q 1633.27 711.03 1609.12 707.31
  C 1580.67 702.92 1564.20 676.62 1560.44 650.18
  C 1555.96 618.64 1562.25 584.82 1582.69 560.40
  Q 1583.03 560.00 1583.55 560.00
  L 1623.48 560.00
  A 0.39 0.38 -71.2 0 1 1623.78 560.62
  C 1606.41 583.15 1600.33 615.10 1603.76 642.60
  Q 1605.37 655.47 1612.02 664.18
  C 1617.08 670.82 1626.77 672.98 1632.30 665.38
  C 1636.23 659.96 1636.99 653.90 1636.96 646.46
  Q 1636.85 620.28 1636.41 594.95
  A 0.39 0.39 0.0 0 1 1636.80 594.56
  L 1678.46 594.55
  A 0.41 0.41 0.0 0 1 1678.87 594.97
  Q 1678.51 619.11 1678.01 643.99
  C 1677.86 651.20 1678.54 658.83 1682.64 664.78
  C 1687.61 671.99 1696.84 671.79 1702.45 665.61
  C 1709.36 658.01 1711.80 646.13 1712.58 635.88
  C 1714.56 609.94 1709.18 581.11 1692.66 560.73
  Q 1692.07 560.00 1693.00 560.00
  L 1733.00 560.00
  A 1.43 1.39 -21.5 0 1 1734.01 560.42
  C 1744.04 570.61 1750.39 585.55 1753.87 600.33
  C 1760.61 628.94 1757.44 667.50 1736.66 690.02
  Q 1719.80 708.28 1695.23 707.96
  C 1679.64 707.75 1664.90 699.72 1657.93 685.47
  A 0.95 0.94 48.7 0 0 1656.29 685.36
  Z"
/>
<path fill="#0069b1" d="
  M 1912.00 566.62
  L 1912.00 576.50
  Q 1910.71 593.23 1906.45 608.01
  Q 1900.89 627.27 1891.45 647.45
  Q 1878.55 675.05 1860.32 704.54
  Q 1860.04 705.00 1859.49 705.00
  L 1816.71 705.00
  A 0.47 0.47 0.0 0 1 1816.27 704.69
  L 1765.95 560.34
  A 0.26 0.25 80.8 0 1 1766.19 560.00
  L 1814.02 560.00
  Q 1814.62 560.00 1814.79 560.57
  Q 1825.11 596.23 1834.44 629.07
  C 1837.44 639.63 1840.11 651.17 1842.86 661.87
  Q 1843.54 664.49 1844.70 662.04
  Q 1860.39 629.00 1866.85 594.83
  Q 1869.58 580.42 1868.75 560.54
  Q 1868.72 560.00 1869.27 560.00
  L 1910.55 560.00
  Q 1911.14 560.00 1911.21 560.58
  L 1912.00 566.62
  Z"
/>
<path fill="#00c2ff" d="
  M 59.46 598.78
  Q 59.46 599.72 60.10 599.03
  Q 70.76 587.47 86.34 587.04
  C 103.67 586.56 117.75 598.64 117.95 616.27
  C 118.14 632.18 107.33 643.62 91.71 645.19
  Q 73.12 647.06 60.28 633.43
  Q 59.45 632.55 59.46 633.76
  L 59.48 646.50
  Q 59.48 646.74 59.24 646.74
  L 53.25 646.74
  Q 53.00 646.74 53.00 646.49
  L 53.00 623.64
  Q 53.00 623.02 53.61 623.01
  L 57.70 622.97
  Q 58.21 622.96 58.52 623.38
  Q 66.08 633.49 78.89 636.24
  C 88.48 638.29 99.20 636.39 106.20 629.25
  C 111.38 623.96 112.65 615.94 109.94 609.26
  C 105.10 597.29 90.32 593.56 78.46 596.42
  Q 65.48 599.55 58.45 609.42
  Q 58.04 610.00 57.33 610.00
  L 53.50 610.00
  Q 53.00 610.00 53.00 609.50
  L 53.00 586.25
  A 0.25 0.25 0.0 0 1 53.25 586.00
  L 59.24 586.01
  Q 59.47 586.01 59.47 586.24
  L 59.46 598.78
  Z"
/>
<path fill="#00c2ff" d="
  M 106.07 664.30
  C 88.45 665.34 70.63 665.10 53.20 664.96
  Q 53.00 664.96 53.00 664.75
  L 53.01 657.50
  Q 53.01 657.26 53.25 657.26
  L 116.38 657.26
  Q 117.00 657.26 117.00 657.88
  L 117.00 665.70
  A 0.82 0.82 0.0 0 1 116.61 666.40
  Q 99.84 676.88 82.59 687.60
  Q 73.59 693.20 64.69 697.19
  Q 62.86 698.00 64.86 697.86
  C 82.10 696.57 99.26 696.90 116.80 697.04
  Q 117.00 697.04 117.00 697.25
  L 116.99 704.50
  Q 116.99 704.74 116.75 704.74
  L 53.75 704.74
  Q 53.00 704.74 53.00 704.00
  L 53.00 697.20
  Q 53.00 696.52 53.58 696.16
  Q 75.19 682.73 91.40 672.95
  Q 98.08 668.91 106.24 664.94
  Q 107.79 664.19 106.07 664.30
  Z"
/>
</svg>
